<svg xmlns="http://www.w3.org/2000/svg" viewBox="0 0 620 280" fill="none">
  <!-- Workflow Diagram for README - GitHub Compatible -->
  
  <!-- Background -->
  <rect width="620" height="280" fill="#0F0F10" rx="12"/>
  <rect width="620" height="280" fill="none" stroke="#27272A" stroke-width="1" rx="12"/>
  
  <!-- Title -->
  <text x="310" y="40" font-family="system-ui, -apple-system, sans-serif" font-size="16" font-weight="600" fill="#F9FAFB" text-anchor="middle">
    vibeOS Workflow
  </text>
  
  <!-- Flow boxes -->
  <g transform="translate(30, 70)">
    <!-- PROBLEM -->
    <rect x="0" y="0" width="110" height="50" rx="8" fill="#18181B" stroke="#EF4444" stroke-width="2"/>
    <text x="55" y="32" font-family="ui-monospace, monospace" font-size="13" fill="#EF4444" text-anchor="middle">PROBLEM</text>
    
    <!-- Arrow 1 -->
    <path d="M115 25 L145 25" stroke="#4B5563" stroke-width="2"/>
    <polygon points="145,20 155,25 145,30" fill="#4B5563"/>
    
    <!-- PRD -->
    <rect x="160" y="0" width="90" height="50" rx="8" fill="#18181B" stroke="#3B82F6" stroke-width="2"/>
    <text x="205" y="32" font-family="ui-monospace, monospace" font-size="13" fill="#3B82F6" text-anchor="middle">PRD</text>
    
    <!-- Arrow 2 -->
    <path d="M255 25 L285 25" stroke="#4B5563" stroke-width="2"/>
    <polygon points="285,20 295,25 285,30" fill="#4B5563"/>
    
    <!-- TECH_SPEC -->
    <rect x="300" y="0" width="120" height="50" rx="8" fill="#18181B" stroke="#10B981" stroke-width="2"/>
    <text x="360" y="32" font-family="ui-monospace, monospace" font-size="13" fill="#10B981" text-anchor="middle">TECH_SPEC</text>
    
    <!-- Arrow 3 -->
    <path d="M425 25 L455 25" stroke="#4B5563" stroke-width="2"/>
    <polygon points="455,20 465,25 455,30" fill="#4B5563"/>
    
    <!-- SHIP -->
    <rect x="470" y="0" width="80" height="50" rx="8" fill="#18181B" stroke="#A78BFA" stroke-width="2"/>
    <text x="510" y="32" font-family="ui-monospace, monospace" font-size="13" fill="#A78BFA" text-anchor="middle">SHIP</text>
  </g>
  
  <!-- Descriptions -->
  <g transform="translate(30, 150)" font-family="system-ui, -apple-system, sans-serif" font-size="11" fill="#71717A">
    <text x="55" y="0" text-anchor="middle">Understand</text>
    <text x="55" y="14" text-anchor="middle">the why</text>
    
    <text x="205" y="0" text-anchor="middle">Define</text>
    <text x="205" y="14" text-anchor="middle">the what</text>
    
    <text x="360" y="0" text-anchor="middle">Plan</text>
    <text x="360" y="14" text-anchor="middle">the how</text>
    
    <text x="510" y="0" text-anchor="middle">Execute</text>
    <text x="510" y="14" text-anchor="middle">&amp; iterate</text>
  </g>
  
  <!-- Bottom quote -->
  <text x="310" y="230" font-family="system-ui, -apple-system, sans-serif" font-size="12" fill="#52525B" text-anchor="middle" font-style="italic">
    "80% shipped beats 100% planned"
  </text>
</svg>
