<svg xmlns="http://www.w3.org/2000/svg" viewBox="0 0 620 280" fill="none">
  <!-- Workflow Diagram - Vietnamese - vibeOS Brand Guidelines -->
  
  <defs>
    <linearGradient id="accentGrad" x1="0%" y1="0%" x2="100%" y2="100%">
      <stop offset="0%" stop-color="#f34e3f"/>
      <stop offset="100%" stop-color="#f6833b"/>
    </linearGradient>
  </defs>
  
  <!-- Background -->
  <rect width="620" height="280" fill="#0b0d0b" rx="8"/>
  <rect width="620" height="280" fill="none" stroke="rgba(135,139,134,0.12)" stroke-width="1" rx="8"/>
  
  <!-- Title -->
  <text x="310" y="40" font-family="system-ui, -apple-system, sans-serif" font-size="14" font-weight="500" fill="rgb(223,223,193)" text-anchor="middle">
    Quy Trình vibeOS
  </text>
  
  <!-- Flow boxes -->
  <g transform="translate(30, 70)">
    <!-- VẤN ĐỀ -->
    <rect x="0" y="0" width="110" height="50" rx="4" fill="rgba(246,255,245,0.03)" stroke="#f34e3f" stroke-width="1.5"/>
    <text x="55" y="32" font-family="ui-monospace, monospace" font-size="11" font-weight="700" fill="#f34e3f" text-anchor="middle">VẤN ĐỀ</text>
    
    <!-- Arrow 1 -->
    <path d="M115 25 L145 25" stroke="rgba(135,139,134,0.25)" stroke-width="2"/>
    <polygon points="145,20 155,25 145,30" fill="rgba(135,139,134,0.25)"/>
    
    <!-- PRD -->
    <rect x="160" y="0" width="90" height="50" rx="4" fill="rgba(246,255,245,0.03)" stroke="#f6833b" stroke-width="1.5"/>
    <text x="205" y="32" font-family="ui-monospace, monospace" font-size="12" font-weight="700" fill="#f6833b" text-anchor="middle">PRD</text>
    
    <!-- Arrow 2 -->
    <path d="M255 25 L285 25" stroke="rgba(135,139,134,0.25)" stroke-width="2"/>
    <polygon points="285,20 295,25 285,30" fill="rgba(135,139,134,0.25)"/>
    
    <!-- SPEC KỸ THUẬT -->
    <rect x="300" y="0" width="120" height="50" rx="4" fill="rgba(246,255,245,0.03)" stroke="#2ba12b" stroke-width="1.5"/>
    <text x="360" y="32" font-family="ui-monospace, monospace" font-size="10" font-weight="700" fill="#2ba12b" text-anchor="middle">SPEC_KỸ_THUẬT</text>
    
    <!-- Arrow 3 -->
    <path d="M425 25 L455 25" stroke="rgba(135,139,134,0.25)" stroke-width="2"/>
    <polygon points="455,20 465,25 455,30" fill="rgba(135,139,134,0.25)"/>
    
    <!-- SHIP -->
    <rect x="470" y="0" width="80" height="50" rx="4" fill="rgba(246,255,245,0.03)" stroke="url(#accentGrad)" stroke-width="2"/>
    <text x="510" y="32" font-family="ui-monospace, monospace" font-size="12" font-weight="700" fill="#f6833b" text-anchor="middle">SHIP</text>
  </g>
  
  <!-- Descriptions -->
  <g transform="translate(30, 150)" font-family="system-ui, -apple-system, sans-serif" font-size="11" fill="#9ca49c">
    <text x="55" y="0" text-anchor="middle">Hiểu</text>
    <text x="55" y="14" text-anchor="middle">tại sao</text>
    
    <text x="205" y="0" text-anchor="middle">Định nghĩa</text>
    <text x="205" y="14" text-anchor="middle">cái gì</text>
    
    <text x="360" y="0" text-anchor="middle">Lên kế hoạch</text>
    <text x="360" y="14" text-anchor="middle">như thế nào</text>
    
    <text x="510" y="0" text-anchor="middle">Thực thi</text>
    <text x="510" y="14" text-anchor="middle">&amp; lặp lại</text>
  </g>
  
  <!-- Bottom quote -->
  <text x="310" y="230" font-family="ui-monospace, monospace" font-size="11" fill="rgba(135,139,134,0.6)" text-anchor="middle" font-style="italic">
    "80% shipped thắng 100% planned"
  </text>
</svg>
